<svg width="28" height="25" viewBox="0 0 28 25" fill="none" xmlns="http://www.w3.org/2000/svg">
<path fill-rule="evenodd" clip-rule="evenodd" d="M15.3947 1.89917C15.3947 1.07074 14.7231 0.39917 13.8947 0.39917C13.0662 0.39917 12.3947 1.07074 12.3947 1.89917V12H2C1.17157 12 0.5 12.6716 0.5 13.5C0.5 14.3284 1.17157 15 2 15H12.3947V23.101C12.3947 23.9294 13.0662 24.601 13.8947 24.601C14.7231 24.601 15.3947 23.9294 15.3947 23.101V15H26.5C27.3284 15 28 14.3284 28 13.5C28 12.6716 27.3284 12 26.5 12H15.3947V1.89917Z" fill="#3C4953"/>
</svg>
